<?xml version="1.0" encoding="utf-8"?>
<!-- Generator: Adobe Illustrator 17.0.0, SVG Export Plug-In . SVG Version: 6.00 Build 0)  -->
<!DOCTYPE svg PUBLIC "-//W3C//DTD SVG 1.1//EN" "http://www.w3.org/Graphics/SVG/1.1/DTD/svg11.dtd">
<svg version="1.1" id="Capa_1" xmlns="http://www.w3.org/2000/svg" xmlns:xlink="http://www.w3.org/1999/xlink" x="0px" y="0px"
	 width="56.353px" height="56.353px" viewBox="0 0 56.353 56.353" enable-background="new 0 0 56.353 56.353" xml:space="preserve">
<g>
	<g>
		<path fill="#010002" d="M28.176,0C12.64,0,0,12.64,0,28.176s12.64,28.176,28.176,28.176s28.176-12.64,28.176-28.176
			S43.713,0,28.176,0z M28.176,50.357c-12.23,0-22.182-9.95-22.182-22.181S15.946,5.995,28.176,5.995s22.182,9.95,22.182,22.181
			S40.407,50.357,28.176,50.357z"/>
		<path fill="#010002" d="M42.861,27.306H30.198V12.081c0-1.281-1.039-2.32-2.32-2.32s-2.32,1.039-2.32,2.32v17.545
			c0,1.281,1.039,2.32,2.32,2.32h14.983c1.281,0,2.32-1.039,2.32-2.32C45.181,28.345,44.142,27.306,42.861,27.306z"/>
	</g>
</g>
</svg>
