<?xml version="1.0" encoding="utf-8"?>
<!-- Generator: Adobe Illustrator 17.0.0, SVG Export Plug-In . SVG Version: 6.00 Build 0)  -->
<!DOCTYPE svg PUBLIC "-//W3C//DTD SVG 1.1//EN" "http://www.w3.org/Graphics/SVG/1.1/DTD/svg11.dtd">
<svg version="1.1" id="Capa_1" xmlns="http://www.w3.org/2000/svg" xmlns:xlink="http://www.w3.org/1999/xlink" x="0px" y="0px"
	 width="35.26px" height="51.184px" viewBox="0 0 35.26 51.184" enable-background="new 0 0 35.26 51.184" xml:space="preserve">
<g>
	<path fill="#038875" d="M34.427,12.739c-0.182-0.683-0.552-1.41-0.826-2.047
		C30.326,2.821,23.17,0,17.392,0C9.657,0,1.137,5.187,0,15.878v2.184c0,0.091,0.031,0.91,0.076,1.32
		c0.638,5.095,4.658,10.51,7.661,15.605c3.23,5.459,6.582,10.829,9.903,16.197c2.048-3.503,4.088-7.052,6.089-10.464
		c0.545-1.001,1.178-2.002,1.724-2.958c0.364-0.636,1.059-1.273,1.377-1.865c3.23-5.914,8.43-11.874,8.43-17.743v-2.411
		C35.26,15.106,34.471,12.876,34.427,12.739z M17.533,23.704c-2.274,0-4.762-1.137-5.991-4.277c-0.183-0.5-0.168-1.501-0.168-1.593
		v-1.41c0-4.003,3.399-5.823,6.355-5.823c3.64,0,6.455,2.912,6.455,6.552C24.185,20.793,21.173,23.704,17.533,23.704z"/>
</g>
</svg>
