<?xml version="1.0" encoding="utf-8"?>
<!-- Generator: Adobe Illustrator 17.0.0, SVG Export Plug-In . SVG Version: 6.00 Build 0)  -->
<!DOCTYPE svg PUBLIC "-//W3C//DTD SVG 1.1//EN" "http://www.w3.org/Graphics/SVG/1.1/DTD/svg11.dtd">
<svg version="1.1" id="Capa_1" xmlns="http://www.w3.org/2000/svg" xmlns:xlink="http://www.w3.org/1999/xlink" x="0px" y="0px"
	 width="47.512px" height="47.405px" viewBox="0 0 47.512 47.405" enable-background="new 0 0 47.512 47.405" xml:space="preserve">
<g>
	<g>
		<g>
			<path fill="#010002" d="M46.447,37.495l-7.338-7.338c-1.462-1.456-3.882-1.411-5.394,0.102l-3.697,3.696
				c-0.234-0.129-0.475-0.263-0.729-0.406c-2.334-1.293-5.529-3.066-8.892-6.431c-3.372-3.372-5.147-6.572-6.444-8.908
				c-0.137-0.247-0.268-0.486-0.398-0.713l2.481-2.477l1.22-1.221c1.515-1.515,1.557-3.935,0.098-5.395l-7.338-7.339
				C8.56-0.393,6.138-0.349,4.624,1.166l-2.068,2.08l0.057,0.056C1.919,4.187,1.339,5.208,0.908,6.308
				C0.511,7.355,0.263,8.355,0.15,9.357c-0.969,8.032,2.702,15.373,12.663,25.334C26.582,48.46,37.679,47.419,38.157,47.369
				c1.043-0.125,2.042-0.374,3.057-0.768c1.091-0.426,2.111-1.005,2.995-1.697l0.045,0.04l2.095-2.051
				C47.861,41.378,47.905,38.957,46.447,37.495z"/>
		</g>
	</g>
</g>
</svg>
